<mxfile host="app.diagrams.net" modified="2024-02-21T01:22:28.919Z" agent="Mozilla/5.0 (Macintosh; Intel Mac OS X 10_15_7) AppleWebKit/537.36 (KHTML, like Gecko) Chrome/121.0.0.0 Safari/537.36" etag="7BbOidfwKM33U2cD4ary" version="23.1.5" type="google">
  <diagram name="Page-1" id="5f0bae14-7c28-e335-631c-24af17079c00">
    <mxGraphModel grid="1" page="1" gridSize="10" guides="1" tooltips="1" connect="1" arrows="1" fold="1" pageScale="1" pageWidth="1100" pageHeight="850" background="none" math="0" shadow="0">
      <root>
        <mxCell id="0" />
        <mxCell id="1" parent="0" />
        <mxCell id="39150e848f15840c-1" value="Presentation layer" style="verticalAlign=top;align=left;spacingTop=8;spacingLeft=2;spacingRight=12;shape=cube;size=10;direction=south;fontStyle=4;html=1;rounded=0;shadow=0;comic=0;labelBackgroundColor=none;strokeWidth=1;fontFamily=Verdana;fontSize=12" vertex="1" parent="1">
          <mxGeometry x="-350" y="370" width="420" height="250" as="geometry" />
        </mxCell>
        <mxCell id="39150e848f15840c-2" value="Data Layer" style="verticalAlign=top;align=left;spacingTop=8;spacingLeft=2;spacingRight=12;shape=cube;size=10;direction=south;fontStyle=4;html=1;rounded=0;shadow=0;comic=0;labelBackgroundColor=none;strokeWidth=1;fontFamily=Verdana;fontSize=12" vertex="1" parent="1">
          <mxGeometry x="1190" y="490" width="330" height="220" as="geometry" />
        </mxCell>
        <mxCell id="yKX2Nimr__PKnn9snrV9-4" style="edgeStyle=orthogonalEdgeStyle;rounded=0;orthogonalLoop=1;jettySize=auto;html=1;entryX=0;entryY=0;entryDx=115;entryDy=330;entryPerimeter=0;" edge="1" parent="1" target="39150e848f15840c-2">
          <mxGeometry relative="1" as="geometry">
            <mxPoint x="890" y="604.69" as="sourcePoint" />
            <mxPoint x="1180" y="594.7669230769229" as="targetPoint" />
            <Array as="points" />
          </mxGeometry>
        </mxCell>
        <mxCell id="39150e848f15840c-3" value="Application Layer" style="verticalAlign=top;align=left;spacingTop=8;spacingLeft=2;spacingRight=12;shape=cube;size=10;direction=south;fontStyle=4;html=1;rounded=0;shadow=0;comic=0;labelBackgroundColor=none;strokeWidth=1;fontFamily=Verdana;fontSize=12" vertex="1" parent="1">
          <mxGeometry x="370" y="380" width="520" height="680" as="geometry" />
        </mxCell>
        <mxCell id="39150e848f15840c-4" value="User Interface" style="html=1;rounded=0;shadow=0;comic=0;labelBackgroundColor=none;strokeWidth=1;fontFamily=Verdana;fontSize=12;align=center;" vertex="1" parent="1">
          <mxGeometry x="-340" y="465" width="130" height="55" as="geometry" />
        </mxCell>
        <mxCell id="39150e848f15840c-8" value="Database" style="html=1;rounded=0;shadow=0;comic=0;labelBackgroundColor=none;strokeWidth=1;fontFamily=Verdana;fontSize=12;align=center;" vertex="1" parent="1">
          <mxGeometry x="1300" y="610" width="110" height="50" as="geometry" />
        </mxCell>
        <mxCell id="9Z037g0hRBMVuzme2cKG-11" style="edgeStyle=orthogonalEdgeStyle;rounded=0;orthogonalLoop=1;jettySize=auto;html=1;exitX=1;exitY=0.25;exitDx=0;exitDy=0;entryX=0;entryY=0.5;entryDx=0;entryDy=0;" edge="1" parent="1" source="9Z037g0hRBMVuzme2cKG-6" target="9Z037g0hRBMVuzme2cKG-7">
          <mxGeometry relative="1" as="geometry" />
        </mxCell>
        <mxCell id="9Z037g0hRBMVuzme2cKG-14" style="edgeStyle=orthogonalEdgeStyle;rounded=0;orthogonalLoop=1;jettySize=auto;html=1;exitX=0.75;exitY=1;exitDx=0;exitDy=0;entryX=0;entryY=0.5;entryDx=0;entryDy=0;" edge="1" parent="1" source="9Z037g0hRBMVuzme2cKG-6" target="9Z037g0hRBMVuzme2cKG-9">
          <mxGeometry relative="1" as="geometry" />
        </mxCell>
        <mxCell id="9Z037g0hRBMVuzme2cKG-15" style="edgeStyle=orthogonalEdgeStyle;rounded=0;orthogonalLoop=1;jettySize=auto;html=1;exitX=0.25;exitY=1;exitDx=0;exitDy=0;entryX=0;entryY=0.75;entryDx=0;entryDy=0;" edge="1" parent="1" source="9Z037g0hRBMVuzme2cKG-6" target="9Z037g0hRBMVuzme2cKG-10">
          <mxGeometry relative="1" as="geometry" />
        </mxCell>
        <mxCell id="9Z037g0hRBMVuzme2cKG-6" value="Library Management" style="html=1;rounded=0;shadow=0;comic=0;labelBackgroundColor=none;strokeWidth=1;fontFamily=Verdana;fontSize=12;align=center;" vertex="1" parent="1">
          <mxGeometry x="380" y="520" width="130" height="100" as="geometry" />
        </mxCell>
        <mxCell id="9Z037g0hRBMVuzme2cKG-7" value="User Management" style="html=1;rounded=0;shadow=0;comic=0;labelBackgroundColor=none;strokeWidth=1;fontFamily=Verdana;fontSize=12;align=center;" vertex="1" parent="1">
          <mxGeometry x="660" y="450" width="140" height="110" as="geometry" />
        </mxCell>
        <mxCell id="9Z037g0hRBMVuzme2cKG-8" value="Inventory Management" style="html=1;rounded=0;shadow=0;comic=0;labelBackgroundColor=none;strokeWidth=1;fontFamily=Verdana;fontSize=12;align=center;" vertex="1" parent="1">
          <mxGeometry x="620" y="590" width="150" height="110" as="geometry" />
        </mxCell>
        <mxCell id="9Z037g0hRBMVuzme2cKG-9" value="Catalog" style="html=1;rounded=0;shadow=0;comic=0;labelBackgroundColor=none;strokeWidth=1;fontFamily=Verdana;fontSize=12;align=center;" vertex="1" parent="1">
          <mxGeometry x="660" y="740" width="130" height="100" as="geometry" />
        </mxCell>
        <mxCell id="9Z037g0hRBMVuzme2cKG-10" value="Order Processing" style="html=1;rounded=0;shadow=0;comic=0;labelBackgroundColor=none;strokeWidth=1;fontFamily=Verdana;fontSize=12;align=center;" vertex="1" parent="1">
          <mxGeometry x="660" y="870" width="130" height="100" as="geometry" />
        </mxCell>
        <mxCell id="9Z037g0hRBMVuzme2cKG-12" style="edgeStyle=orthogonalEdgeStyle;rounded=0;orthogonalLoop=1;jettySize=auto;html=1;exitX=1;exitY=0.75;exitDx=0;exitDy=0;entryX=0;entryY=0.6;entryDx=0;entryDy=0;entryPerimeter=0;" edge="1" parent="1" source="9Z037g0hRBMVuzme2cKG-6" target="9Z037g0hRBMVuzme2cKG-8">
          <mxGeometry relative="1" as="geometry" />
        </mxCell>
        <mxCell id="yKX2Nimr__PKnn9snrV9-3" style="edgeStyle=orthogonalEdgeStyle;rounded=0;orthogonalLoop=1;jettySize=auto;html=1;exitX=0.5;exitY=1;exitDx=0;exitDy=0;entryX=0;entryY=0.58;entryDx=0;entryDy=0;entryPerimeter=0;" edge="1" parent="1" source="39150e848f15840c-4" target="9Z037g0hRBMVuzme2cKG-6">
          <mxGeometry relative="1" as="geometry" />
        </mxCell>
        <mxCell id="yKX2Nimr__PKnn9snrV9-5" value="Reads and Writes" style="text;html=1;align=center;verticalAlign=middle;resizable=0;points=[];autosize=1;strokeColor=none;fillColor=none;" vertex="1" parent="1">
          <mxGeometry x="1000" y="580" width="120" height="30" as="geometry" />
        </mxCell>
        <mxCell id="yKX2Nimr__PKnn9snrV9-8" value="Uses" style="text;html=1;align=center;verticalAlign=middle;resizable=0;points=[];autosize=1;strokeColor=none;fillColor=none;" vertex="1" parent="1">
          <mxGeometry x="525" y="520" width="50" height="30" as="geometry" />
        </mxCell>
        <mxCell id="yKX2Nimr__PKnn9snrV9-9" value="Uses" style="text;html=1;align=center;verticalAlign=middle;resizable=0;points=[];autosize=1;strokeColor=none;fillColor=none;" vertex="1" parent="1">
          <mxGeometry x="510" y="570" width="50" height="30" as="geometry" />
        </mxCell>
        <mxCell id="yKX2Nimr__PKnn9snrV9-10" value="Uses" style="text;html=1;align=center;verticalAlign=middle;resizable=0;points=[];autosize=1;strokeColor=none;fillColor=none;" vertex="1" parent="1">
          <mxGeometry x="500" y="760" width="50" height="30" as="geometry" />
        </mxCell>
        <mxCell id="rtAb2gzRD58LG8w5bQAf-2" value="Uses" style="text;html=1;align=center;verticalAlign=middle;resizable=0;points=[];autosize=1;strokeColor=none;fillColor=none;" vertex="1" parent="1">
          <mxGeometry x="475" y="905" width="50" height="30" as="geometry" />
        </mxCell>
        <mxCell id="rtAb2gzRD58LG8w5bQAf-3" value="Queries" style="text;html=1;align=center;verticalAlign=middle;resizable=0;points=[];autosize=1;strokeColor=none;fillColor=none;" vertex="1" parent="1">
          <mxGeometry x="195" y="540" width="70" height="30" as="geometry" />
        </mxCell>
      </root>
    </mxGraphModel>
  </diagram>
</mxfile>
